<?xml version="1.0" standalone="no"?><!DOCTYPE svg PUBLIC "-//W3C//DTD SVG 1.1//EN" "http://www.w3.org/Graphics/SVG/1.1/DTD/svg11.dtd">
<svg t="1629116135245" class="icon" viewBox="0 0 1024 1024" version="1.1"
    xmlns="http://www.w3.org/2000/svg" p-id="2735"
    xmlns:xlink="http://www.w3.org/1999/xlink" width="200" height="200">
    <defs>
        <style type="text/css"></style>
    </defs>
    <path d="M512 85.333333c235.690667 0 426.666667 191.061333 426.666667 426.666667 0 235.690667-190.976 426.666667-426.666667 426.666667-235.605333 0-426.666667-190.976-426.666667-426.666667C85.333333 276.437333 276.437333 85.333333 512 85.333333z m0 64a362.666667 362.666667 0 1 0 0 725.333334 362.666667 362.666667 0 0 0 0-725.333334z m-15.018667 172.970667l3.072-3.584a32 32 0 0 1 41.685334-3.114667l3.584 3.114667 170.666666 170.666667a32 32 0 0 1 3.114667 41.685333l-3.072 3.584-170.752 170.666667a32 32 0 0 1-48.341333-41.642667l3.114666-3.626667 116.138667-116.053333H330.666667a32 32 0 0 1-31.701334-27.648L298.666667 512a32 32 0 0 1 27.648-31.701333l4.352-0.298667h285.44l-116.053334-116.053333a32 32 0 0 1-3.072-41.642667l3.072-3.584-3.072 3.584z" p-id="2736" fill="rgb(25, 90, 220)"></path>
</svg>